<svg width="24" height="24" viewBox="0 0 24 24" fill="none" xmlns="http://www.w3.org/2000/svg">
<path fill-rule="evenodd" clip-rule="evenodd" d="M14.5455 4.26436C14.5454 5.47556 13.5283 6.45842 12.2732 6.45835C11.018 6.45828 10.001 5.47531 10.0011 4.26411C10.0012 3.05201 11.0183 2.07006 12.2734 2.07012C13.5286 2.07019 14.5456 3.05226 14.5455 4.26436ZM14.5451 12.0352C14.545 13.2392 13.5279 14.2148 12.2727 14.2147C11.0176 14.2147 10.0006 13.239 10.0007 12.035C10.0007 10.831 11.0178 9.85544 12.273 9.85551C13.5281 9.85558 14.5451 10.8313 14.5451 12.0352ZM14.5446 19.8061C14.5446 21.0182 13.5275 22.0002 12.2723 22.0001C11.0172 22.0001 10.0002 21.018 10.0002 19.8059C10.0003 18.5947 11.0174 17.6118 12.2726 17.6119C13.5277 17.612 14.5447 18.5949 14.5446 19.8061Z" fill="#393939"/>
</svg>
